<svg id="Capa_1" enable-background="new 0 0 504.125 504.125" height="512" viewBox="0 0 504.125 504.125" width="512" xmlns="http://www.w3.org/2000/svg"><path d="m401.023 301.087c8.705-12.297 15.942-25.705 21.457-39.972-5.307-6.817-22.025-21.771-26.315-24.835-4.861-3.472-34.03 4.167-45.837 1.389-11.806-2.778-29.169-54.171-18.057-77.089s19.446-54.171 13.89-56.949-28.474 2.778-33.336 1.389-32.641-34.03-37.503-44.448-5.556-48.615-5.556-48.615.691-.218 1.985-.621c-7.032-.814-14.181-1.246-21.431-1.246-67.312 0-126.197 36.049-158.425 89.888 25.563 15.365 62.074 35.366 73.002 31.432 17.362-6.25 30.558-19.446 30.558-19.446s37.503 26.391 33.336 46.531-28.474 46.531-38.197 47.226-45.837-3.472-43.059 18.057 6.945 24.307-1.389 29.169c-7.855 4.582-50.859 15.329-64.503 16.55 4.742 10.664 10.465 20.795 17.054 30.278" fill="#80b6ff"/><path d="m232.96 268.226c30.558-14.584 27.085-4.861 33.336 0" fill="#b9f4fb"/><g fill="#9febbb"><path d="m147.537 223.779c-2.778-21.529 33.336-17.362 43.059-18.057 9.723-.694 34.03-27.085 38.197-47.226 4.167-20.14-33.336-46.531-33.336-46.531s-13.195 13.195-30.558 19.446c-10.928 3.934-47.439-16.066-73.002-31.432-16.564 27.671-26.093 60.036-26.093 94.631 0 26.663 5.665 52 15.841 74.888 13.644-1.222 56.649-11.968 64.503-16.55 8.334-4.862 4.167-7.64 1.389-29.169z"/><path d="m275.324 60.572c4.862 10.417 32.641 43.059 37.503 44.448s27.78-4.167 33.336-1.389-2.778 34.03-13.89 56.949c-11.112 22.918 6.25 74.311 18.057 77.089 11.806 2.778 40.975-4.861 45.837-1.389 4.289 3.064 21.007 18.018 26.315 24.835 7.976-20.634 12.36-43.056 12.36-66.504 0-94.656-71.279-172.652-163.087-183.273-1.294.403-1.985.621-1.985.621s.692 38.196 5.554 48.613z"/><path d="m306.08 299.637c-18.532-12.338-35.585-28.144-39.785-31.411-6.25-4.861-2.778-14.584-33.336 0-18.144 8.659-19.394 18.788-15.67 32.13"/></g><path d="m342.342 494.125h-291.136c-12.181 0-22.056-9.875-22.056-22.056v-147.731c0-12.181 9.875-22.056 22.056-22.056h401.712c12.181 0 22.056 9.875 22.056 22.056v147.731c0 12.181-9.875 22.056-22.056 22.056h-30.798" fill="#ff7b7b"/><path d="m452.918 292.283h-34.368c5.137-8.831 9.58-18.05 13.257-27.563 8.648-22.37 13.033-45.958 13.033-70.109 0-98.806-73.917-181.867-171.938-193.207-41.172-5.146-84.136 4.028-119.963 24.79-28.577 16.561-52.652 40.3-69.623 68.649-18 30.069-27.513 64.568-27.513 99.767 0 27.46 5.62 54.023 16.704 78.95.001.002.002.004.003.006 2.843 6.393 6.057 12.646 9.588 18.716h-30.892c-17.676 0-32.056 14.38-32.056 32.056v147.73c0 17.676 14.38 32.056 32.056 32.056h291.136c12.84 0 12.859-20 0-20h-291.136c-6.647 0-12.056-5.408-12.056-12.056v-147.73c0-6.647 5.408-12.056 12.056-12.056h401.712c6.648 0 12.056 5.408 12.056 12.056v147.73c0 6.647-5.408 12.056-12.056 12.056h-30.798c-12.84 0-12.859 20 0 20h30.798c17.676 0 32.056-14.38 32.056-32.056v-147.73c0-17.675-14.38-32.055-32.056-32.055zm-28.078-97.673c0 16.271-2.215 32.251-6.601 47.695-4.91-4.643-10.154-10.473-15.999-13.97-8.194-4.901-18.34-2.663-27.343-1.579-7.189.865-16.89 2.032-21.509 1.325-2.441-2.235-8.056-11.859-11.776-26.867-3.741-15.092-3.873-28.991-.342-36.272 5.649-11.65 10.843-25.836 13.894-37.947 3.492-13.858 5.36-27.364-4.53-32.309-10.134-5.066-23.898-.038-34.534.539-11.594-9.868-25.225-24.978-31.714-38.882-4.476-9.598-3.726-23.36-4.248-33.705 83.141 14.263 144.702 86.561 144.702 171.972zm-329.231-80.805c23.22 13.559 38.866 20.985 49.777 24.747 7.006 2.435 15.6 4.896 22.9 2.268 11.604-4.177 21.444-11.018 27.561-15.923 3.071 2.521 6.923 5.896 10.667 9.749 13.005 13.388 12.844 20.089 12.485 21.825-3.396 16.413-23.206 37.272-29.433 39.296-13.956.721-30.409-1.779-42.407 7.1-14.32 10.597-8.505 26.618-6.242 41.551-15.179 8.183-36.252 11.122-53.038 14.096-8.017-20.327-12.076-41.787-12.076-63.903 0-28.241 6.823-55.975 19.806-80.806zm.939 163.38c17.457-3.481 39.042-6.504 54.638-15.601 12.128-7.074 10.379-16.05 8.528-25.553-1.404-7.202-5.025-13.989 1.707-18.147 8.22-5.078 20.712-1.529 29.887-2.188 10.432-.745 22.079-12.739 28.093-19.823 4.719-5.558 16.035-20.129 19.185-35.352 2.441-11.797-3.522-25.192-17.725-39.812-9.399-9.676-19.234-16.632-19.648-16.923-3.942-2.775-9.444-2.275-12.826 1.107-.115.116-11.891 11.628-26.613 17.014-.804.06-5.465.043-19.354-6.087-12.58-5.553-24.658-12.264-36.531-19.179 14.763-21.711 34.331-39.96 57.079-53.143 26.423-15.313 56.629-23.406 87.355-23.406 3.205 0 6.439.091 9.684.272.572 14.899.339 30.46 6.256 44.438 3.869 8.291 16.425 23.407 20.182 27.843 14.363 16.961 19.67 20.486 22.366 21.57 8.51 3.423 19.996-.555 28.835-1.236-1.244 8.702-6.138 26.258-14.37 43.238-5.399 11.137-5.238 24.754-3.609 36.674 1.749 12.8 5.383 25.681 11.263 37.217 5.167 10.139 10.777 15.804 17.111 17.295 7.679 1.807 18.645.486 29.25-.79 4.618-.556 11.333-1.365 14.281-1.264 6.8 5.437 13.276 11.478 19.309 17.749-4.355 10.196-9.702 19.974-15.935 29.185h-82.104c-12.495-11.461-31.271-19.319-41.447-33.282-7.244-9.939-15.843-12.637-42.741.201-11.63 5.55-24.028 14.27-22.885 33.081h-100.062c-3.298-4.874-6.368-9.914-9.159-15.098zm129.158 15.098c-.881-6.26 1.329-10.148 11.561-15.032 11.13-5.312 15.982-6.453 17.812-6.679 6.202 8.499 16.219 15.189 24.311 21.711z"/><path d="m107.785 343.009c-5.52-2.881-21.37-3.536-21.37 5.812v99.569c0 5.76 6.26 7.89 11.021 7.89h49.472c10.158 0 10.157-22.042 0-22.042h-35.319v-85.417c-.001-2.54-1.281-4.496-3.804-5.812z"/><path d="m191.681 341.087c-4.72 0-12.586 1.511-12.586 7.733v99.569c0 10.916 25.173 10.916 25.173 0v-99.569c-.001-6.219-7.868-7.733-12.587-7.733z"/><path d="m303.93 341.087c-4.657 0-7.465 1.62-8.346 4.817l-21.401 78.982-21.555-78.984c-2.901-10.5-26.722-3.165-24.046 7.411l29.277 95.504c3.715 11.621 28.931 11.599 32.654-.005l29.124-95.519c2.036-8.156-9.577-12.206-15.707-12.206z"/><path d="m416.501 452.967c3.221-5.369 2.876-18.729-5.801-18.729h-41.582v-25.864h23.108c10.418 0 10.32-19.536 0-19.536h-23.108v-25.708h41.582c10.503 0 10.605-22.042 0-22.042h-55.734c-4.76 0-11.021 2.129-11.021 7.89v99.413c0 5.76 6.26 7.89 11.021 7.89h55.734c2.531-.001 4.482-1.115 5.801-3.314z"/><path d="m391.483 490.297c-2.096-5.027-8.02-7.5-13.06-5.409-5.031 2.087-7.494 8.027-5.41 13.06 2.083 5.031 8.028 7.498 13.06 5.41 5.05-2.096 7.477-8.013 5.41-13.061z"/></svg>