<svg id="Layer_1" enable-background="new 0 0 128 128" height="512" viewBox="0 0 128 128" width="512" xmlns="http://www.w3.org/2000/svg"><g><path d="m100.41 45.664c-5.636-6.294-10.643-6.545-13.849-5.646-5.767 1.615-9.455 7.75-10.133 11.387-.384 2.061-1.055 6.169-1.513 11.663-1.677-1.629-2.69-3.902-2.69-6.314v-41.29c0-.227-.077-.447-.22-.625-.077-.097-1.947-2.375-6.006-2.375s-5.929 2.278-6.006 2.375c-.143.178-.22.398-.22.625v41.478c0 2.401-1.007 4.669-2.675 6.299-.458-5.581-1.14-9.753-1.528-11.836-.678-3.638-4.366-9.772-10.133-11.387-3.208-.898-8.212-.647-13.849 5.646-15.984 17.852-25.344 46.004-24.054 61.098.387 4.532 1.7 7.715 3.904 9.461 2.782 2.204 6.48 3.313 10.761 3.313 3.631 0 7.68-.798 11.941-2.401 9.524-3.583 19.943-11.463 21.431-19.589 1.687-9.215 2.114-17.987 1.973-25.438 4.002-1.561 7.404-2.124 8.649-2.29 1.204.161 4.433.701 8.264 2.148-.148 7.481.274 16.306 1.971 25.579 1.487 8.126 11.906 16.006 21.431 19.589 4.262 1.604 8.311 2.402 11.941 2.401 4.279 0 7.979-1.109 10.761-3.313 2.204-1.746 3.518-4.929 3.904-9.461 1.291-15.093-8.068-43.245-24.055-61.097z" fill="#e6e7e8"/><g><path d="m73.412 93.365c-3.562-19.459-1.583-37.278 0-45.777 1.108-5.952 10.701-18.157 22.253-5.257 19.994 22.328 29.738 61.612 20.275 69.109-12.208 9.672-40.183-5.264-42.528-18.075z" fill="#6dc9f7"/><g><path d="m50.588 93.365c3.562-19.459 1.583-37.278 0-45.777-1.108-5.953-10.701-18.158-22.253-5.258-19.994 22.328-29.738 61.612-20.276 69.109 12.209 9.673 40.184-5.263 42.529-18.074z" fill="#6dc9f7"/><path d="m11.059 111.439c-9.463-7.497.282-46.781 20.275-69.109 3.135-3.501 6.124-5.142 8.84-5.572-3.44-.576-7.502.728-11.84 5.572-19.993 22.328-29.737 61.612-20.275 69.109 3.099 2.455 7.216 3.32 11.669 3.041-3.284-.209-6.28-1.148-8.669-3.041z" fill="#fff"/><g><path d="m100.493 77.586c-3.672 1.06-7.997.494-7.997.494s-2.969-5.057-9.478-10.218c-3.29-2.609-7.019-4.719-10.307-6.311-3.366-1.63-5.485-5.057-5.485-8.798v-41.289s-1.601-2-5.226-2-5.226 2-5.226 2v41.478c0 3.723-2.1 7.137-5.443 8.777-3.203 1.571-6.786 3.624-9.963 6.143-6.508 5.161-9.478 10.218-9.478 10.218s-4.324.567-7.997-.494c-4.147-1.197-7.701-4.019-7.701-3.653 0 .346 2.912 4.161 6.615 6.074 3.702 1.913 8.194 1.923 8.194 1.923s-3.406 19.4-1.777 20.14c.772.351 3.514-17.367 11.255-26.268 7.619-8.761 19.2-10.673 21.713-10.993 2.514.32 14.094 2.232 21.713 10.993 7.741 8.901 10.482 26.619 11.255 26.268 1.629-.74-1.777-20.14-1.777-20.14s4.492-.01 8.194-1.923 6.615-5.729 6.615-6.074c.001-.366-3.552 2.456-7.699 3.653z" fill="#d4fbff"/><g fill="#3a2c60"><path d="m119.593 100.547c-.538-.004-1.021.399-1.047.951-.215 4.489-1.331 7.655-3.227 9.158-4.577 3.626-12.141 3.849-20.755.607-10.322-3.884-18.993-11.656-20.169-18.078-1.614-8.817-2.05-17.21-1.947-24.408 3.105 1.378 6.433 3.365 9.325 6.217-.012 3.616-.8 12.321-4.42 14.973-.445.326-.542.952-.216 1.397.195.268.5.409.808.409.205 0 .412-.063.59-.193 1.27-.93 2.23-2.349 2.96-3.975.704 2.014 1.87 4.462 3.639 5.661.172.116.366.172.56.172.32 0 .636-.154.829-.439.31-.457.189-1.079-.268-1.389-2.025-1.372-3.26-5.569-3.623-7.319.674-2.604.953-5.274 1.066-7.159 3.422 4.257 5.796 10.251 7.432 15.368-.188.912-1.122 4.617-4.269 6.88-.448.323-.551.948-.228 1.396.195.271.502.416.813.416.202 0 .406-.061.583-.188 2.101-1.512 3.363-3.507 4.109-5.177.31 1.073.587 2.074.828 2.949.922 3.343 1.093 3.907 1.722 4.201.268.124.624.126.89.006.541-.246 1.645-.759.46-10.39 2.015 1.197 5.473 2.738 9.954 2.818.3.902.772 2.751.353 4.555-.124.538.211 1.075.749 1.2.076.018.151.026.227.026.455 0 .866-.312.974-.774.451-1.944.111-3.856-.232-5.076 1.238-.104 2.535-.315 3.895-.684.532-.145.848-.694.702-1.227-.146-.534-.696-.848-1.228-.703-5.374 1.461-9.807.299-12.645-.984l1.32-1.685c.341-.435.265-1.063-.17-1.404-.436-.341-1.063-.265-1.404.17l-1.551 1.979c-.582-.346-1.028-.652-1.295-.851-.287-2.025-.653-4.36-1.122-7.079 1.558-.125 4.403-.528 7.021-1.765 1.076.515 4.109 2.158 4.109 4.332 0 .552.447 1 1 1s1-.448 1-1c0-2.631-2.368-4.502-4.065-5.508 2.922-1.998 5.565-5.031 5.565-5.999 0-.36-.208-.72-.521-.898-.583-.331-.979-.095-2.156.611-1.391.835-3.719 2.233-6.3 2.979-2.751.793-5.957.614-7.131.51-.456-.704-1.485-2.194-3.134-4.072 1.039-.78 2.694-2.221 4.089-4.313l5.195.437c.028.002.057.003.085.003.515 0 .951-.395.995-.916.047-.551-.362-1.034-.912-1.081l-4.28-.36c.811-1.703 1.378-3.703 1.378-6.019 0-.552-.447-1-1-1s-1 .448-1 1c0 5.816-4.25 9.533-5.913 10.764-1.346-1.405-2.985-2.945-4.948-4.501-.953-.756-1.981-1.495-3.067-2.219 2.166-1.276 8.871-5.726 8.871-11.919 0-.552-.447-1-1-1s-1 .448-1 1c0 2.095-1.025 3.996-2.354 5.594-.898-.641-3.188-2.49-4.269-5.207l3.392-2.309c.457-.311.575-.933.264-1.39-.31-.456-.932-.575-1.389-.264l-2.788 1.898c-.09-.794-.074-1.633.121-2.524.118-.54-.223-1.073-.762-1.191-.537-.121-1.073.222-1.191.762-1.351 6.155 3.383 10.326 5.24 11.695-2.247 2.128-4.682 3.435-4.728 3.459-.103.054-.185.13-.26.211-1.723-1.05-3.583-2.06-5.573-3.023-.118-.057-.222-.132-.337-.194.448-6.016 1.18-10.508 1.586-12.686.608-3.269 3.973-8.502 8.706-9.828 3.866-1.084 7.844.616 11.818 5.055 9.297 10.382 17.24 25.618 21.247 40.756.143.535.689.851 1.223.711.534-.142.853-.689.711-1.223-4.084-15.429-12.192-30.972-21.69-41.578-5.637-6.294-10.643-6.543-13.849-5.647-5.767 1.615-9.455 7.75-10.133 11.388-.384 2.06-1.051 6.179-1.51 11.667-1.679-1.63-2.693-3.904-2.693-6.318v-41.29c0-.227-.077-.447-.22-.625-.079-.096-1.949-2.375-6.008-2.375s-5.929 2.278-6.006 2.375c-.143.178-.22.398-.22.625v41.478c0 2.403-1.009 4.673-2.68 6.303-.458-5.575-1.136-9.759-1.523-11.841-.678-3.638-4.366-9.772-10.133-11.388-3.208-.895-8.213-.646-13.849 5.647-15.986 17.853-25.345 46.005-24.055 61.099.387 4.532 1.7 7.715 3.904 9.461 2.782 2.204 6.48 3.313 10.761 3.313 3.631 0 7.68-.798 11.941-2.401 9.524-3.583 19.943-11.463 21.431-19.589 1.688-9.22 2.108-17.982 1.967-25.435 4.005-1.563 7.41-2.126 8.655-2.292 1.205.161 4.437.701 8.272 2.151-.149 7.484.265 16.298 1.964 25.577 1.487 8.126 11.907 16.006 21.432 19.59 4.262 1.604 8.31 2.401 11.94 2.401 4.28 0 7.979-1.109 10.761-3.313 2.396-1.898 3.735-5.474 3.982-10.629.026-.554-.399-1.023-.951-1.049zm-61.819-76.673c.488-.444 1.819-1.41 4.226-1.41s3.738.966 4.226 1.41v3.603c-.979-.529-2.361-1.013-4.226-1.013s-3.246.484-4.226 1.013zm8.452-2.396c-.979-.529-2.361-1.013-4.226-1.013s-3.246.484-4.226 1.013v-3.603c.488-.444 1.819-1.41 4.226-1.41s3.738.966 4.226 1.41zm-8.452 8.396c.488-.444 1.819-1.41 4.226-1.41s3.738.966 4.226 1.41v3.603c-.979-.529-2.361-1.013-4.226-1.013s-3.246.484-4.226 1.013zm4.226-19.41c2.389 0 3.731.96 4.226 1.405v3.608c-.979-.529-2.361-1.013-4.226-1.013s-3.246.484-4.226 1.013v-3.607c.5-.45 1.842-1.406 4.226-1.406zm-12.396 82.721c-1.176 6.422-9.846 14.194-20.168 18.078-8.613 3.241-16.177 3.02-20.756-.607-1.729-1.371-2.82-4.159-3.154-8.064-1.254-14.678 7.911-42.127 23.554-59.594 3.199-3.573 6.4-5.372 9.545-5.372.762 0 1.52.105 2.273.317 4.733 1.326 8.098 6.559 8.706 9.828.41 2.199 1.152 6.761 1.598 12.868-.106.058-.203.129-.312.182-1.861.913-3.597 1.869-5.218 2.857-.076-.083-.161-.16-.266-.215-.045-.024-2.482-1.327-4.73-3.456 1.855-1.367 6.596-5.539 5.244-11.698-.119-.54-.657-.884-1.191-.762-.539.118-.88.651-.762 1.191.196.895.215 1.735.128 2.528l-2.795-1.903c-.456-.311-1.077-.192-1.39.264-.311.457-.192 1.079.265 1.389l3.407 2.319c-1.073 2.724-3.372 4.561-4.285 5.203-1.329-1.598-2.353-3.499-2.353-5.599 0-.552-.447-1-1-1s-1 .448-1 1c0 6.205 6.732 10.66 8.884 11.927-1.085.724-2.13 1.458-3.081 2.211-1.962 1.556-3.602 3.096-4.948 4.501-1.662-1.232-5.913-4.948-5.913-10.764 0-.552-.447-1-1-1s-1 .448-1 1c0 2.315.566 4.316 1.378 6.019l-4.28.36c-.55.046-.959.53-.912 1.081.044.521.48.916.995.916.028 0 .057-.001.085-.003l5.195-.437c1.395 2.092 3.05 3.534 4.089 4.313-1.649 1.879-2.679 3.368-3.134 4.072-1.174.104-4.38.283-7.13-.51-2.581-.745-4.909-2.143-6.301-2.979-1.177-.707-1.574-.942-2.156-.611-.313.178-.521.538-.521.898 0 .968 2.643 4.001 5.565 5.999-1.697 1.006-4.065 2.877-4.065 5.507 0 .552.447 1 1 1s1-.448 1-1c0-2.008 2.68-3.67 4.104-4.334 2.619 1.239 5.467 1.642 7.026 1.767-.468 2.72-.835 5.056-1.122 7.081-.266.2-.71.507-1.291.854l-1.555-1.985c-.341-.436-.968-.511-1.404-.17-.435.341-.511.969-.17 1.404l1.327 1.693c-2.831 1.283-7.257 2.442-12.652.975-.533-.145-1.082.169-1.228.703-.146.533.17 1.083.702 1.227 1.36.37 2.657.581 3.895.684-.343 1.22-.682 3.132-.232 5.076.107.462.519.774.974.774.075 0 .15-.008.227-.026.538-.125.873-.662.749-1.2-.419-1.805.054-3.654.353-4.555 4.481-.08 7.94-1.621 9.955-2.818-1.185 9.631-.081 10.144.461 10.39.131.06.283.089.437.089.158 0 .317-.032.453-.095.629-.294.8-.857 1.722-4.201.241-.875.519-1.877.829-2.951.746 1.671 2.005 3.667 4.108 5.179.177.127.381.188.583.188.311 0 .617-.145.813-.416.323-.448.221-1.073-.228-1.396-3.147-2.263-4.082-5.968-4.269-6.879 1.636-5.117 4.009-11.111 7.432-15.368.113 1.886.393 4.556 1.067 7.161-.364 1.751-1.598 5.946-3.624 7.317-.457.31-.577.931-.268 1.389.193.286.509.439.829.439.192 0 .388-.056.56-.172 1.769-1.198 2.936-3.645 3.64-5.659.73 1.626 1.689 3.044 2.959 3.974.178.13.385.193.59.193.308 0 .612-.142.808-.409.326-.445.229-1.071-.216-1.397-3.62-2.652-4.408-11.355-4.42-14.972 2.773-2.735 5.945-4.666 8.94-6.036.089 7.159-.353 15.484-1.954 24.228zm12.589-29.376c-.042 0-.084.002-.126.008-2.345.298-14.442 2.247-22.342 11.329-5.152 5.925-8.081 15.409-9.771 21.434.348-3.845 1.133-9.356 2.032-14.477.051-.291-.029-.589-.219-.815-.189-.227-.47-.357-.765-.358-.042 0-4.289-.03-7.736-1.811-.888-.458-1.72-1.028-2.468-1.626.881.398 1.833.77 2.817 1.054 3.829 1.105 8.218.548 8.403.524.306-.04.575-.219.732-.484.028-.049 2.971-4.973 9.236-9.942 2.698-2.139 5.989-4.167 9.782-6.029 3.646-1.79 6.003-5.587 6.003-9.675v-17.067c.488-.444 1.819-1.41 4.226-1.41s3.738.966 4.226 1.41v16.879c0 4.112 2.375 7.918 6.05 9.698 3.933 1.904 7.339 3.988 10.122 6.195 6.266 4.969 9.208 9.893 9.236 9.942.157.265.427.444.732.484.185.024 4.574.58 8.404-.524.984-.284 1.936-.656 2.816-1.054-.747.598-1.579 1.167-2.467 1.625-3.434 1.774-7.695 1.811-7.738 1.811-.295.001-.574.132-.764.358s-.27.524-.219.814c.899 5.121 1.686 10.633 2.033 14.478-1.689-6.025-4.618-15.51-9.771-21.435-7.9-9.082-19.998-11.031-22.343-11.329-.037-.004-.079-.007-.121-.007z"/><path d="m117.088 87.567c.768 3.524 1.245 6.824 1.421 9.809.031.531.472.941.997.941.02 0 .04 0 .06-.002.552-.032.972-.505.939-1.057-.181-3.088-.673-6.492-1.462-10.117-.118-.54-.648-.883-1.19-.764-.54.117-.882.65-.765 1.19z"/></g></g></g></g></g></svg>