<svg height="512pt" viewBox="0 -77 512 512" width="512pt" xmlns="http://www.w3.org/2000/svg"><path d="m392.53125 349.867188h93.867188c9.425781 0 17.070312-7.640626 17.070312-17.066407v-307.199219c0-9.425781-7.644531-17.070312-17.070312-17.070312h-460.796876c-9.425781 0-17.070312 7.644531-17.070312 17.070312v307.199219c0 9.425781 7.644531 17.066407 17.070312 17.066407zm0 0" fill="#c52828"/><path d="m372.667969 349.867188h88.984375c4.414062-.113282 8.605468-1.972657 11.644531-5.175782 3.042969-3.199218 4.683594-7.476562 4.570313-11.890625v-307.199219c.113281-4.414062-1.53125-8.695312-4.570313-11.894531s-7.230469-5.0625-11.644531-5.175781h-436.90625c-4.414063.113281-8.601563 1.976562-11.640625 5.175781-3.042969 3.199219-4.6875 7.480469-4.570313 11.894531v307.199219c-.117187 4.414063 1.527344 8.691407 4.570313 11.890625 3.039062 3.203125 7.226562 5.0625 11.640625 5.175782zm0 0" fill="#f44335"/><path d="m318.464844 281.601562h91.136718c4.710938 0 8.53125-3.824218 8.53125-8.535156v-187.734375c0-4.710937-3.820312-8.53125-8.53125-8.53125h-307.203124c-4.710938 0-8.53125 3.820313-8.53125 8.53125v187.734375c0 4.710938 3.820312 8.53125 8.53125 8.53125h216.066406zm0 0" fill="#2e7d32"/><path d="m300.730469 281.601562h83.945312c4.515625-.203124 8.027344-4.015624 7.855469-8.535156v-187.734375c.171875-4.519531-3.339844-8.328125-7.855469-8.53125h-282.949219c-4.519531.203125-8.027343 4.011719-7.859374 8.53125v187.734375c-.167969 4.519532 3.339843 8.328125 7.859374 8.53125h199.003907zm0 0" fill="#4caf50"/><path d="m290.132812 244.054688c-28.148437 9.25-59.054687-.714844-76.5-24.667969-17.445312-23.953125-17.445312-56.421875 0-80.375 17.445313-23.953125 48.347657-33.917969 76.5-24.664063-28.015624 9.207032-46.949218 35.363282-46.949218 64.851563s18.933594 55.644531 46.949218 64.855469zm0 0" fill="#fff"/><path d="m486.398438 0h-460.796876c-14.140624 0-25.601562 11.460938-25.601562 25.601562v307.199219c0 14.136719 11.460938 25.597657 25.601562 25.597657h460.796876c14.140624 0 25.601562-11.460938 25.601562-25.597657v-307.199219c0-14.140624-11.460938-25.601562-25.601562-25.601562zm8.535156 332.800781c0 4.710938-3.820313 8.53125-8.535156 8.53125h-460.796876c-4.714843 0-8.535156-3.820312-8.535156-8.53125v-307.199219c0-4.714843 3.820313-8.535156 8.535156-8.535156h460.796876c4.714843 0 8.535156 3.820313 8.535156 8.535156zm0 0"/><path d="m409.601562 68.265625h-307.203124c-9.425782 0-17.066407 7.640625-17.066407 17.070313v187.730468c0 9.425782 7.640625 17.066406 17.066407 17.066406h307.203124c9.425782 0 17.066407-7.640624 17.066407-17.066406v-187.734375c0-9.425781-7.640625-17.066406-17.066407-17.066406zm0 204.800781h-307.203124v-187.734375h307.203124zm0 0"/><path d="m268.800781 256c8.117188.007812 16.179688-1.28125 23.890625-3.8125h.113282c.050781 0 .085937-.0625.128906-.078125.914062-.324219 1.765625-.808594 2.515625-1.425781.25-.21875.488281-.453125.707031-.699219.46875-.476563.878906-1.003906 1.222656-1.578125.199219-.320312.371094-.660156.519532-1.007812.125-.210938.242187-.429688.339843-.65625.058594-.3125.097657-.628907.113281-.949219.125-.558594.195313-1.132813.203126-1.707031-.007813-.574219-.078126-1.144532-.210938-1.707032-.019531-.3125-.054688-.628906-.113281-.9375-.066407-.207031-.222657-.339844-.296875-.53125-.230469-.53125-.519532-1.042968-.855469-1.515625-.277344-.472656-.605469-.910156-.972656-1.316406-.351563-.316406-.738281-.601563-1.140625-.851563-.53125-.382812-1.105469-.703124-1.707032-.949218-.179687-.066406-.292968-.210938-.472656-.269532-24.511718-8.058593-41.082031-30.945312-41.082031-56.75 0-25.804687 16.570313-48.6875 41.082031-56.746093.191406-.066407.324219-.222657.515625-.296875.558594-.238282 1.085938-.539063 1.578125-.898438.429688-.273437.835938-.589844 1.210938-.9375.359375-.386718.679687-.804687.964844-1.246094.335937-.476562.625-.988281.851562-1.527343.078125-.1875.230469-.324219.300781-.53125.058594-.308594.09375-.621094.109375-.9375.132813-.558594.207032-1.132813.214844-1.707031-.011719-.574219-.078125-1.144532-.207031-1.707032-.015625-.316406-.050781-.632812-.109375-.945312-.070313-.207032-.222656-.34375-.308594-.539063-.453125-1.042969-1.058594-2.007812-1.800781-2.867187-.378907-.363282-.792969-.6875-1.238281-.964844-.472657-.339844-.984376-.625-1.523438-.851562-.199219-.085938-.335938-.238282-.539062-.308594-28.847657-9.492188-60.578126-1.097656-80.953126 21.421875-20.375 22.515625-25.570312 54.925781-13.253906 82.679687 12.316406 27.761719 39.835938 45.652344 70.203125 45.652344zm-5.972656-136.234375c-17.824219 14.585937-28.164063 36.402344-28.164063 59.433594s10.339844 44.847656 28.164063 59.4375c-30.527344-3.066407-53.769531-28.757813-53.769531-59.4375 0-30.679688 23.242187-56.371094 53.769531-59.433594zm0 0"/></svg>