<svg id="flat" height="512" viewBox="0 0 512 512" width="512" xmlns="http://www.w3.org/2000/svg"><path d="m320 248a24 24 0 0 0 24-24 23.99994 23.99994 0 0 0 -4.8-14.4l-19.2-25.6v-104h-256v408h192v-88h64z" fill="#ffceb6"/><circle cx="256" cy="176" fill="#91591c" r="16"/><path d="m261.65723 317.65723-11.31446-11.31446a62.21991 62.21991 0 0 1 44.28423-18.34277h25.373v16h-25.373a46.3218 46.3218 0 0 0 -32.96977 13.65723z" fill="#ffbfa1"/><path d="m176 240-48 72h-64l-40-144v-20.10546a123.89454 123.89454 0 0 1 123.89454-123.89454h140.10546a32 32 0 0 1 32 32v40h-120v64h-32a40 40 0 0 0 -40 40 40 40 0 0 0 40 40z" fill="#b1712c"/><path d="m396.536 457.821-197.062-41.821v-32.351l198.468-42.119z" fill="#02c26a"/><circle cx="424" cy="400" fill="#02c26a" r="64"/><g fill="#3cde8d"><path d="m400 424a8 8 0 0 1 -5.65723-13.65723l8-8a8.00053 8.00053 0 0 1 11.31446 11.31446l-8 8a7.97772 7.97772 0 0 1 -5.65723 2.34277z"/><path d="m424 392a7.97772 7.97772 0 0 1 -5.65723-2.34277l-8-8a8.00053 8.00053 0 0 1 11.31446-11.31446l8 8a8 8 0 0 1 -5.65723 13.65723z"/><path d="m392.00586 400.002a7.9989 7.9989 0 0 1 -7.16113-4.4248l-4.627-9.25488a7.99962 7.99962 0 1 1 14.31055-7.1543l4.62695 9.25488a8.00385 8.00385 0 0 1 -7.14941 11.5791z"/><path d="m432.00586 424.002a8.00123 8.00123 0 0 1 -3.583-15.15722l9.35645-4.67774a7.99962 7.99962 0 0 1 7.15429 14.31055l-9.35644 4.67773a7.96731 7.96731 0 0 1 -3.5713.84668z"/><path d="m384 456a8 8 0 0 1 -5.65723-13.65723l11.37305-11.373a8.00052 8.00052 0 0 1 11.31445 11.31445l-11.373 11.37305a7.97772 7.97772 0 0 1 -5.65727 2.34273z"/><path d="m432 448h-8a8 8 0 0 1 0-16h8a8 8 0 0 1 0 16z"/><path d="m456.00586 376.002a8.00136 8.00136 0 0 1 -3.584-15.15722l16-8a8.00005 8.00005 0 1 1 7.15624 14.31054l-16 8a7.97126 7.97126 0 0 1 -3.57224.84668z"/><path d="m464 408a7.97772 7.97772 0 0 1 -5.65723-2.34277l-8-8a8.00053 8.00053 0 0 1 11.31446-11.31446l8 8a8 8 0 0 1 -5.65723 13.65723z"/><path d="m464.00586 456.002a7.99974 7.99974 0 0 1 -7.16113-4.42383l-8-16a8.00005 8.00005 0 0 1 14.31054-7.15624l8 16a8.0035 8.0035 0 0 1 -7.14941 11.58007z"/></g><path d="m160 336 16.351 24.526 28.904-5.781-5.781 28.904 24.526 16.351-24.526 16.351 5.781 28.904-28.904-5.781-16.351 24.526-16.351-24.526-28.904 5.781 5.781-28.904-24.526-16.351 24.526-16.351-5.781-28.904 28.904 5.781z" fill="#ef5e3b"/><path d="m424 472a72 72 0 1 1 72-72 72.08124 72.08124 0 0 1 -72 72zm0-128a56 56 0 1 0 56 56 56.0629 56.0629 0 0 0 -56-56z" fill="#67eba0"/></svg>